<svg fill="none" xmlns="http://www.w3.org/2000/svg" viewBox="0 0 24 24"><path d="M4 9.256c.037-1.462.566-2.897 1.81-4.025C6.675 4.446 7.692 4.002 8.863 4c1.166-.002 2.196.406 3.074 1.181.124.11.22.302.378.31.164.01.255-.192.377-.301.867-.776 1.882-1.194 3.041-1.186 1.407.008 2.583.583 3.504 1.637.967 1.106 1.416 2.422 1.397 3.882a5.616 5.616 0 0 1-1.273 3.543c-.683.844-1.45 1.606-2.247 2.341a55.466 55.466 0 0 1-3.851 3.218c-.66.5-1.267.502-1.916-.007-1.493-1.174-2.968-2.372-4.338-3.692-.61-.588-1.2-1.193-1.732-1.854C4.42 12.01 4.012 10.797 4 9.256Zm1.032-.179c-.007 1.412.298 2.386.961 3.246.326.421.677.816 1.05 1.197a36.293 36.293 0 0 0 2.065 1.938 59.832 59.832 0 0 0 2.852 2.338c.296.228.414.228.707 0 .436-.337.87-.676 1.295-1.026 1.466-1.207 2.93-2.417 4.185-3.853.382-.438.753-.883 1-1.416a4.763 4.763 0 0 0 .413-2.671c-.165-1.265-.695-2.328-1.74-3.097a3.5 3.5 0 0 0-4.482.24c-.219.2-.413.418-.6.647-.259.314-.553.32-.828.03-.08-.086-.152-.182-.228-.273-1.387-1.66-3.75-1.8-5.28-.309-.939.914-1.352 2.051-1.37 3.011v-.002Z" fill="currentColor"/></svg>